<?xml version="1.0" encoding="UTF-8"?>
<svg id="Layer_1" data-name="Layer 1" xmlns="http://www.w3.org/2000/svg" viewBox="0 0 277.45 72">
  <defs>
    <style>
      .cls-1 {
        fill: #fff;
      }

      .cls-2 {
        font-size: 11.99px;
      }

      .cls-2, .cls-3 {
        font-family: Bauhaus93, 'Bauhaus 93';
      }

      .cls-3 {
        font-size: 22.68px;
      }
    </style>
  </defs>
  <g>
    <g>
      <path class="cls-1" d="M37.75,58.58c-12.04,0-21.83-9.57-21.83-21.34S25.72,15.91,37.75,15.91s21.83,9.57,21.83,21.34-9.79,21.34-21.83,21.34Z"/>
      <path d="M37.75,17.33c11.26,0,20.41,8.94,20.41,19.92s-9.16,19.92-20.41,19.92-20.41-8.94-20.41-19.92,9.16-19.92,20.41-19.92m0-2.83c-12.84,0-23.25,10.19-23.25,22.75s10.41,22.75,23.25,22.75,23.25-10.19,23.25-22.75-10.41-22.75-23.25-22.75h0Z"/>
    </g>
    <path d="M38,6.67c17.83,0,32.33,13.16,32.33,29.33s-14.5,29.33-32.33,29.33S5.67,52.17,5.67,36,20.17,6.67,38,6.67m0-5.67C17.01,1,0,16.67,0,36s17.01,35,38,35,38-15.67,38-35S58.99,1,38,1h0Z"/>
    <rect class="cls-1" x="33" width="8" height="72"/>
    <rect class="cls-1" x="21" y="33" width="44" height="8"/>
    <g>
      <path d="M37.5,46.58c-4.46,0-8.08-3.85-8.08-8.58s3.63-8.58,8.08-8.58,8.08,3.85,8.08,8.58-3.63,8.58-8.08,8.58Z"/>
      <path d="M37.5,30.83c3.68,0,6.67,3.21,6.67,7.17s-2.99,7.17-6.67,7.17-6.67-3.21-6.67-7.17,2.99-7.17,6.67-7.17m0-2.83c-5.25,0-9.5,4.48-9.5,10s4.25,10,9.5,10,9.5-4.48,9.5-10-4.25-10-9.5-10h0Z"/>
    </g>
  </g>
  <text class="cls-3" transform="translate(98.73 29.22) scale(1.05 1)"><tspan x="0" y="0">PRODUCT</tspan><tspan x="0" y="27.21">SHOP</tspan></text>
  <text class="cls-2" transform="translate(197.89 68.46)"><tspan x="0" y="0">Test aplication</tspan></text>
</svg>